<svg xmlns="http://www.w3.org/2000/svg" xmlns:v="https://svgstorm.com"
viewBox = "0 0 512 512"
width="512"
height="512">
<g fill="None" fill-opacity="0.0" stroke="#000000" stroke-opacity="0.00" stroke-width="0.3"><path d="
M 0.00 235.00 
C 1.93 231.89 5.01 229.60 9.00 230.00
C 6.44 224.90 12.33 217.94 12.00 213.00
C 1.82 210.14 9.19 196.37 12.77 190.77 C 16.35 185.17 21.46 177.36 27.25 172.25 C 33.04 167.13 38.57 161.19 45.70 157.70 C 52.83 154.20 61.01 149.55 69.00 148.00
C 66.73 139.26 67.95 127.22 69.93 118.93 C 71.91 110.64 74.78 103.06 78.92 95.92 C 83.07 88.79 87.81 84.61 93.75 78.75 C 99.70 72.90 106.07 69.36 113.69 65.69 C 121.32 62.03 130.51 60.95 139.07 59.07 C 147.64 57.19 159.58 62.10 167.22 62.78 C 174.87 63.45 176.86 51.10 182.25 46.25 C 187.64 41.41 192.40 34.22 198.75 29.75 C 205.11 25.28 210.62 20.54 217.70 16.70 C 224.77 12.85 231.66 9.20 239.68 6.68 C 247.70 4.16 257.89 1.40 266.00 0.00
L 0.00 0.00
L 0.00 235.00 Z"/>
</g>
<g fill="None" fill-opacity="0.0" stroke="#373737" stroke-opacity="0.98" stroke-width="0.3"><path d="
M 12.00 213.00 
C 26.47 217.07 26.37 194.49 36.25 188.25 C 46.12 182.01 51.30 169.41 65.02 168.02 C 78.75 166.64 89.94 155.39 85.67 141.33 C 81.40 127.27 88.77 114.00 95.30 103.30 C 101.83 92.60 110.46 85.92 122.08 81.08 C 133.69 76.23 151.90 74.03 165.02 79.98 C 178.15 85.92 186.11 72.81 192.25 62.25 C 198.40 51.70 207.80 44.81 217.70 37.70 C 227.59 30.58 238.01 25.17 250.22 21.22 C 262.44 17.28 280.83 16.40 294.02 17.98 C 307.22 19.55 321.21 23.20 332.70 29.31 C 344.18 35.41 351.41 40.94 360.75 50.25 C 370.09 59.56 375.33 67.60 381.77 79.23 C 388.21 90.86 389.38 104.17 392.33 117.67 C 395.28 131.17 416.06 128.18 427.07 131.93 C 438.09 135.67 450.50 140.85 459.75 149.25 C 469.00 157.65 476.30 164.44 482.31 175.70 C 488.31 186.95 493.73 200.54 494.00 214.00
C 494.58 218.78 494.45 224.31 494.00 229.00
C 494.00 276.53 446.92 316.53 401.00 316.00
C 398.25 303.04 405.10 286.22 400.01 273.99 C 394.92 261.77 401.34 252.77 401.00 239.00 C 400.66 225.23 400.87 208.36 401.00 195.00 C 401.13 181.64 401.94 168.32 393.25 158.75 C 384.56 149.19 378.52 145.81 367.77 140.23 C 357.02 134.65 346.85 132.30 334.99 129.01 C 323.13 125.72 310.77 123.83 297.99 122.01 C 285.21 120.18 269.51 120.03 256.00 120.00 C 242.49 119.97 227.73 120.15 215.00 122.00 C 202.26 123.84 189.66 125.46 177.78 128.78 C 165.90 132.10 155.75 134.42 144.92 139.92 C 134.10 145.43 128.12 148.81 119.25 158.25 C 110.38 167.68 110.88 180.56 111.00 194.00 C 111.12 207.44 111.57 224.12 111.00 238.00 C 110.43 251.88 117.04 260.94 112.22 273.22 C 107.41 285.51 113.30 302.91 111.00 316.00
C 93.07 317.33 73.12 314.81 57.92 307.08 C 42.73 299.35 36.04 288.94 26.23 275.77 C 16.42 262.60 22.53 238.35 9.00 230.00
C 5.01 229.60 1.93 231.89 0.00 235.00
L 0.00 253.00
C 7.40 303.34 58.32 340.99 110.00 333.00
C 107.72 349.14 116.06 361.46 111.68 375.68 C 107.30 389.89 110.79 410.07 110.00 425.00 C 109.21 439.93 108.34 458.82 116.30 470.70 C 124.27 482.57 133.69 486.21 145.68 492.32 C 157.67 498.44 170.51 501.64 184.02 504.98 C 197.54 508.32 215.31 509.78 229.00 512.00
L 233.00 512.00
C 236.60 510.41 243.47 510.29 247.00 512.00
L 265.00 512.00
C 266.96 510.48 272.11 510.28 274.00 512.00
L 283.00 512.00
C 296.58 510.07 313.69 508.25 327.02 505.02 C 340.36 501.80 353.83 498.84 365.69 492.69 C 377.56 486.55 387.95 482.56 395.75 470.75 C 403.55 458.95 403.01 440.87 402.00 426.00 C 400.99 411.13 405.08 390.67 400.67 376.33 C 396.26 361.99 403.76 349.39 402.00 333.00
C 456.55 335.01 505.73 288.46 512.00 236.00
L 512.00 207.00
C 505.40 157.29 460.45 112.43 409.00 111.00
C 403.66 54.61 353.08 6.64 298.00 0.00
L 297.00 0.00
C 295.04 1.52 289.89 1.72 288.00 0.00
L 266.00 0.00
C 257.89 1.40 247.70 4.16 239.68 6.68 C 231.66 9.20 224.77 12.85 217.70 16.70 C 210.62 20.54 205.11 25.28 198.75 29.75 C 192.40 34.22 187.64 41.41 182.25 46.25 C 176.86 51.10 174.87 63.45 167.22 62.78 C 159.58 62.10 147.64 57.19 139.07 59.07 C 130.51 60.95 121.32 62.03 113.69 65.69 C 106.07 69.36 99.70 72.90 93.75 78.75 C 87.81 84.61 83.07 88.79 78.92 95.92 C 74.78 103.06 71.91 110.64 69.93 118.93 C 67.95 127.22 66.73 139.26 69.00 148.00
C 61.01 149.55 52.83 154.20 45.70 157.70 C 38.57 161.19 33.04 167.13 27.25 172.25 C 21.46 177.36 16.35 185.17 12.77 190.77 C 9.19 196.37 1.82 210.14 12.00 213.00
M 283.00 137.00 
C 305.52 139.18 331.52 146.02 352.69 152.31 C 373.87 158.59 394.73 179.63 373.25 195.25 C 351.76 210.87 334.50 211.31 310.33 217.33 C 286.16 223.34 254.55 221.44 230.00 221.00 C 205.45 220.56 181.37 211.47 159.78 206.22 C 138.19 200.98 117.02 178.30 138.25 163.25 C 159.47 148.20 176.49 145.50 201.01 141.01 C 225.52 136.52 256.98 134.48 283.00 137.00
M 384.00 209.00 
C 383.58 227.79 389.36 254.69 370.92 264.92 C 352.48 275.14 340.26 279.97 319.98 283.98 C 299.69 287.99 277.48 290.07 256.00 290.00 C 234.52 289.93 213.30 288.05 192.93 284.07 C 172.56 280.10 160.50 275.41 141.75 265.25 C 123.01 255.08 128.00 228.24 128.00 209.00
C 203.77 250.00 308.21 249.93 384.00 209.00
M 131.00 278.00 
C 134.36 277.92 139.37 285.22 144.08 285.92 C 148.78 286.63 153.35 291.40 158.68 292.32 C 164.00 293.24 169.63 296.52 175.22 297.78 C 180.82 299.04 187.15 299.71 193.00 301.00 C 198.85 302.29 204.68 303.43 211.00 304.00 C 217.32 304.57 224.35 305.98 231.00 306.00 C 237.65 306.02 244.11 307.57 251.00 307.00 C 257.89 306.43 265.13 307.41 272.00 307.00 C 278.87 306.59 285.32 305.84 292.07 305.07 C 298.82 304.31 304.24 304.31 311.00 303.00 C 317.77 301.69 320.97 301.27 328.22 299.22 C 335.47 297.18 337.48 298.02 346.02 295.02 C 354.57 292.03 367.55 287.18 375.23 282.23 C 382.91 277.28 387.22 276.89 383.07 286.07 C 378.92 295.26 368.72 301.52 359.77 305.77 C 350.83 310.03 337.53 313.70 327.99 315.99 C 318.46 318.28 317.90 318.66 309.99 319.99 C 302.08 321.32 298.27 321.38 291.00 322.00 C 283.73 322.62 279.09 323.65 272.00 324.00 C 264.91 324.35 257.01 323.61 250.00 324.00 C 242.99 324.39 236.43 323.68 229.93 323.07 C 223.42 322.46 217.15 322.08 210.98 321.02 C 204.80 319.97 197.72 319.87 191.98 318.02 C 186.23 316.18 180.33 315.99 174.98 314.02 C 169.62 312.05 164.46 310.33 159.32 308.68 C 154.18 307.02 149.16 303.57 144.75 301.25 C 140.35 298.92 136.11 295.09 132.75 292.25 C 129.39 289.41 124.63 278.15 131.00 278.00
M 384.00 311.00 
C 383.43 329.97 389.54 356.29 371.25 367.25 C 352.97 378.22 340.19 381.30 320.00 386.00 C 299.80 390.70 277.67 392.06 256.00 392.00 C 234.33 391.94 213.08 390.71 192.78 386.22 C 172.48 381.73 159.93 378.35 141.30 367.70 C 122.68 357.04 128.31 330.08 128.00 311.00
C 165.58 334.93 210.96 340.92 256.00 341.00 C 301.04 341.08 346.41 334.92 384.00 311.00
M 383.00 380.00 
C 381.54 404.26 355.56 410.59 333.98 416.98 C 312.39 423.36 280.03 426.95 256.00 427.00 C 231.97 427.05 199.57 423.33 177.98 417.02 C 156.38 410.72 130.54 404.05 129.00 380.00
C 166.50 403.57 211.25 409.12 256.00 409.00 C 300.75 408.88 345.47 403.70 383.00 380.00
M 384.00 413.00 
C 383.45 431.83 389.58 459.75 370.92 469.92 C 352.26 480.09 340.29 484.86 319.93 488.93 C 299.57 492.99 277.48 494.88 256.00 495.00 C 234.52 495.12 212.60 492.88 192.32 488.68 C 172.05 484.48 159.53 480.43 140.92 470.08 C 122.31 459.73 128.68 431.67 128.00 413.00
C 165.32 436.98 211.23 443.95 256.00 444.00 C 300.77 444.05 346.72 437.02 384.00 413.00 Z"/>
</g>
<g fill="None" fill-opacity="0.0" stroke="#363636" stroke-opacity="0.53" stroke-width="0.3"><path d="
M 297.00 0.00 
L 288.00 0.00
C 289.89 1.72 295.04 1.52 297.00 0.00 Z"/>
</g>
<g fill="None" fill-opacity="0.0" stroke="#000000" stroke-opacity="0.00" stroke-width="0.3"><path d="
M 512.00 207.00 
L 512.00 0.00
L 298.00 0.00
C 353.08 6.64 403.66 54.61 409.00 111.00
C 460.45 112.43 505.40 157.29 512.00 207.00 Z"/>
</g>
<g fill="None" fill-opacity="0.0" stroke="#6CDBDC" stroke-opacity="1.00" stroke-width="0.3"><path d="
M 12.00 213.00 
C 12.33 217.94 6.44 224.90 9.00 230.00
C 22.53 238.35 16.42 262.60 26.23 275.77 C 36.04 288.94 42.73 299.35 57.92 307.08 C 73.12 314.81 93.07 317.33 111.00 316.00
C 113.30 302.91 107.41 285.51 112.22 273.22 C 117.04 260.94 110.43 251.88 111.00 238.00 C 111.57 224.12 111.12 207.44 111.00 194.00 C 110.88 180.56 110.38 167.68 119.25 158.25 C 128.12 148.81 134.10 145.43 144.92 139.92 C 155.75 134.42 165.90 132.10 177.78 128.78 C 189.66 125.46 202.26 123.84 215.00 122.00 C 227.73 120.15 242.49 119.97 256.00 120.00 C 269.51 120.03 285.21 120.18 297.99 122.01 C 310.77 123.83 323.13 125.72 334.99 129.01 C 346.85 132.30 357.02 134.65 367.77 140.23 C 378.52 145.81 384.56 149.19 393.25 158.75 C 401.94 168.32 401.13 181.64 401.00 195.00 C 400.87 208.36 400.66 225.23 401.00 239.00 C 401.34 252.77 394.92 261.77 400.01 273.99 C 405.10 286.22 398.25 303.04 401.00 316.00
C 446.92 316.53 494.00 276.53 494.00 229.00
C 494.00 224.00 494.10 219.00 494.00 214.00
C 493.73 200.54 488.31 186.95 482.31 175.70 C 476.30 164.44 469.00 157.65 459.75 149.25 C 450.50 140.85 438.09 135.67 427.07 131.93 C 416.06 128.18 395.28 131.17 392.33 117.67 C 389.38 104.17 388.21 90.86 381.77 79.23 C 375.33 67.60 370.09 59.56 360.75 50.25 C 351.41 40.94 344.18 35.41 332.70 29.31 C 321.21 23.20 307.22 19.55 294.02 17.98 C 280.83 16.40 262.44 17.28 250.22 21.22 C 238.01 25.17 227.59 30.58 217.70 37.70 C 207.80 44.81 198.40 51.70 192.25 62.25 C 186.11 72.81 178.15 85.92 165.02 79.98 C 151.90 74.03 133.69 76.23 122.08 81.08 C 110.46 85.92 101.83 92.60 95.30 103.30 C 88.77 114.00 81.40 127.27 85.67 141.33 C 89.94 155.39 78.75 166.64 65.02 168.02 C 51.30 169.41 46.12 182.01 36.25 188.25 C 26.37 194.49 26.47 217.07 12.00 213.00 Z"/>
</g>
<g fill="None" fill-opacity="0.0" stroke="#4A87A8" stroke-opacity="1.00" stroke-width="0.3"><path d="
M 283.00 137.00 
C 256.98 134.48 225.52 136.52 201.01 141.01 C 176.49 145.50 159.47 148.20 138.25 163.25 C 117.02 178.30 138.19 200.98 159.78 206.22 C 181.37 211.47 205.45 220.56 230.00 221.00 C 254.55 221.44 286.16 223.34 310.33 217.33 C 334.50 211.31 351.76 210.87 373.25 195.25 C 394.73 179.63 373.87 158.59 352.69 152.31 C 331.52 146.02 305.52 139.18 283.00 137.00 Z"/>
</g>
<g fill="None" fill-opacity="0.0" stroke="#3D7389" stroke-opacity="1.00" stroke-width="0.3"><path d="
M 384.00 209.00 
C 308.21 249.93 203.77 250.00 128.00 209.00
C 128.00 228.24 123.01 255.08 141.75 265.25 C 160.50 275.41 172.56 280.10 192.93 284.07 C 213.30 288.05 234.52 289.93 256.00 290.00 C 277.48 290.07 299.69 287.99 319.98 283.98 C 340.26 279.97 352.48 275.14 370.92 264.92 C 389.36 254.69 383.58 227.79 384.00 209.00 Z"/>
</g>
<g fill="None" fill-opacity="0.0" stroke="#518687" stroke-opacity="1.00" stroke-width="0.3"><path d="
M 494.00 229.00 
C 494.45 224.31 494.58 218.78 494.00 214.00
C 494.10 219.00 494.00 224.00 494.00 229.00 Z"/>
</g>
<g fill="None" fill-opacity="0.0" stroke="#000000" stroke-opacity="0.00" stroke-width="0.3"><path d="
M 283.00 512.00 
L 512.00 512.00
L 512.00 236.00
C 505.73 288.46 456.55 335.01 402.00 333.00
C 403.76 349.39 396.26 361.99 400.67 376.33 C 405.08 390.67 400.99 411.13 402.00 426.00 C 403.01 440.87 403.55 458.95 395.75 470.75 C 387.95 482.56 377.56 486.55 365.69 492.69 C 353.83 498.84 340.36 501.80 327.02 505.02 C 313.69 508.25 296.58 510.07 283.00 512.00 Z"/>
</g>
<g fill="None" fill-opacity="0.0" stroke="#000000" stroke-opacity="0.00" stroke-width="0.3"><path d="
M 0.00 512.00 
L 229.00 512.00
C 215.31 509.78 197.54 508.32 184.02 504.98 C 170.51 501.64 157.67 498.44 145.68 492.32 C 133.69 486.21 124.27 482.57 116.30 470.70 C 108.34 458.82 109.21 439.93 110.00 425.00 C 110.79 410.07 107.30 389.89 111.68 375.68 C 116.06 361.46 107.72 349.14 110.00 333.00
C 58.32 340.99 7.40 303.34 0.00 253.00
L 0.00 512.00 Z"/>
</g>
<g fill="None" fill-opacity="0.0" stroke="#4A86A6" stroke-opacity="1.00" stroke-width="0.3"><path d="
M 131.00 278.00 
C 124.63 278.15 129.39 289.41 132.75 292.25 C 136.11 295.09 140.35 298.92 144.75 301.25 C 149.16 303.57 154.18 307.02 159.32 308.68 C 164.46 310.33 169.62 312.05 174.98 314.02 C 180.33 315.99 186.23 316.18 191.98 318.02 C 197.72 319.87 204.80 319.97 210.98 321.02 C 217.15 322.08 223.42 322.46 229.93 323.07 C 236.43 323.68 242.99 324.39 250.00 324.00 C 257.01 323.61 264.91 324.35 272.00 324.00 C 279.09 323.65 283.73 322.62 291.00 322.00 C 298.27 321.38 302.08 321.32 309.99 319.99 C 317.90 318.66 318.46 318.28 327.99 315.99 C 337.53 313.70 350.83 310.03 359.77 305.77 C 368.72 301.52 378.92 295.26 383.07 286.07 C 387.22 276.89 382.91 277.28 375.23 282.23 C 367.55 287.18 354.57 292.03 346.02 295.02 C 337.48 298.02 335.47 297.18 328.22 299.22 C 320.97 301.27 317.77 301.69 311.00 303.00 C 304.24 304.31 298.82 304.31 292.07 305.07 C 285.32 305.84 278.87 306.59 272.00 307.00 C 265.13 307.41 257.89 306.43 251.00 307.00 C 244.11 307.57 237.65 306.02 231.00 306.00 C 224.35 305.98 217.32 304.57 211.00 304.00 C 204.68 303.43 198.85 302.29 193.00 301.00 C 187.15 299.71 180.82 299.04 175.22 297.78 C 169.63 296.52 164.00 293.24 158.68 292.32 C 153.35 291.40 148.78 286.63 144.08 285.92 C 139.37 285.22 134.36 277.92 131.00 278.00 Z"/>
</g>
<g fill="None" fill-opacity="0.0" stroke="#3D7389" stroke-opacity="1.00" stroke-width="0.3"><path d="
M 384.00 311.00 
C 346.41 334.92 301.04 341.08 256.00 341.00 C 210.96 340.92 165.58 334.93 128.00 311.00
C 128.31 330.08 122.68 357.04 141.30 367.70 C 159.93 378.35 172.48 381.73 192.78 386.22 C 213.08 390.71 234.33 391.94 256.00 392.00 C 277.67 392.06 299.80 390.70 320.00 386.00 C 340.19 381.30 352.97 378.22 371.25 367.25 C 389.54 356.29 383.43 329.97 384.00 311.00 Z"/>
</g>
<g fill="None" fill-opacity="0.0" stroke="#4A86A6" stroke-opacity="1.00" stroke-width="0.3"><path d="
M 383.00 380.00 
C 345.47 403.70 300.75 408.88 256.00 409.00 C 211.25 409.12 166.50 403.57 129.00 380.00
C 130.54 404.05 156.38 410.72 177.98 417.02 C 199.57 423.33 231.97 427.05 256.00 427.00 C 280.03 426.95 312.39 423.36 333.98 416.98 C 355.56 410.59 381.54 404.26 383.00 380.00 Z"/>
</g>
<g fill="None" fill-opacity="0.0" stroke="#3D7389" stroke-opacity="1.00" stroke-width="0.3"><path d="
M 384.00 413.00 
C 346.72 437.02 300.77 444.05 256.00 444.00 C 211.23 443.95 165.32 436.98 128.00 413.00
C 128.68 431.67 122.31 459.73 140.92 470.08 C 159.53 480.43 172.05 484.48 192.32 488.68 C 212.60 492.88 234.52 495.12 256.00 495.00 C 277.48 494.88 299.57 492.99 319.93 488.93 C 340.29 484.86 352.26 480.09 370.92 469.92 C 389.58 459.75 383.45 431.83 384.00 413.00 Z"/>
</g>
<g fill="None" fill-opacity="0.0" stroke="#363636" stroke-opacity="0.58" stroke-width="0.3"><path d="
M 233.00 512.00 
L 247.00 512.00
C 243.47 510.29 236.60 510.41 233.00 512.00 Z"/>
</g>
<g fill="None" fill-opacity="0.0" stroke="#373737" stroke-opacity="0.70" stroke-width="0.3"><path d="
M 265.00 512.00 
L 274.00 512.00
C 272.11 510.28 266.96 510.48 265.00 512.00 Z"/>
</g>
<g fill="#000000" fill-opacity="0.00" stroke="None">
<path d="
M 0.00 235.00 
C 1.93 231.89 5.01 229.60 9.00 230.00
C 6.44 224.90 12.33 217.94 12.00 213.00
C 1.82 210.14 9.19 196.37 12.77 190.77 C 16.35 185.17 21.46 177.36 27.25 172.25 C 33.04 167.13 38.57 161.19 45.70 157.70 C 52.83 154.20 61.01 149.55 69.00 148.00
C 66.73 139.26 67.95 127.22 69.93 118.93 C 71.91 110.64 74.78 103.06 78.92 95.92 C 83.07 88.79 87.81 84.61 93.75 78.75 C 99.70 72.90 106.07 69.36 113.69 65.69 C 121.32 62.03 130.51 60.95 139.07 59.07 C 147.64 57.19 159.58 62.10 167.22 62.78 C 174.87 63.45 176.86 51.10 182.25 46.25 C 187.64 41.41 192.40 34.22 198.75 29.75 C 205.11 25.28 210.62 20.54 217.70 16.70 C 224.77 12.85 231.66 9.20 239.68 6.68 C 247.70 4.16 257.89 1.40 266.00 0.00
L 0.00 0.00
L 0.00 235.00 Z"/>
</g>
<g fill="#373737" fill-opacity="0.98" stroke="None">
<path d="
M 12.00 213.00 
C 26.47 217.07 26.37 194.49 36.25 188.25 C 46.12 182.01 51.30 169.41 65.02 168.02 C 78.75 166.64 89.94 155.39 85.67 141.33 C 81.40 127.27 88.77 114.00 95.30 103.30 C 101.83 92.60 110.46 85.92 122.08 81.08 C 133.69 76.23 151.90 74.03 165.02 79.98 C 178.15 85.92 186.11 72.81 192.25 62.25 C 198.40 51.70 207.80 44.81 217.70 37.70 C 227.59 30.58 238.01 25.17 250.22 21.22 C 262.44 17.28 280.83 16.40 294.02 17.98 C 307.22 19.55 321.21 23.20 332.70 29.31 C 344.18 35.41 351.41 40.94 360.75 50.25 C 370.09 59.56 375.33 67.60 381.77 79.23 C 388.21 90.86 389.38 104.17 392.33 117.67 C 395.28 131.17 416.06 128.18 427.07 131.93 C 438.09 135.67 450.50 140.85 459.75 149.25 C 469.00 157.65 476.30 164.44 482.31 175.70 C 488.31 186.95 493.73 200.54 494.00 214.00
C 494.58 218.78 494.45 224.31 494.00 229.00
C 494.00 276.53 446.92 316.53 401.00 316.00
C 398.25 303.04 405.10 286.22 400.01 273.99 C 394.92 261.77 401.34 252.77 401.00 239.00 C 400.66 225.23 400.87 208.36 401.00 195.00 C 401.13 181.64 401.94 168.32 393.25 158.75 C 384.56 149.19 378.52 145.81 367.77 140.23 C 357.02 134.65 346.85 132.30 334.99 129.01 C 323.13 125.72 310.77 123.83 297.99 122.01 C 285.21 120.18 269.51 120.03 256.00 120.00 C 242.49 119.97 227.73 120.15 215.00 122.00 C 202.26 123.84 189.66 125.46 177.78 128.78 C 165.90 132.10 155.75 134.42 144.92 139.92 C 134.10 145.43 128.12 148.81 119.25 158.25 C 110.38 167.68 110.88 180.56 111.00 194.00 C 111.12 207.44 111.57 224.12 111.00 238.00 C 110.43 251.88 117.04 260.94 112.22 273.22 C 107.41 285.51 113.30 302.91 111.00 316.00
C 93.07 317.33 73.12 314.81 57.92 307.08 C 42.73 299.35 36.04 288.94 26.23 275.77 C 16.42 262.60 22.53 238.35 9.00 230.00
C 5.01 229.60 1.93 231.89 0.00 235.00
L 0.00 253.00
C 7.40 303.34 58.32 340.99 110.00 333.00
C 107.72 349.14 116.06 361.46 111.68 375.68 C 107.30 389.89 110.79 410.07 110.00 425.00 C 109.21 439.93 108.34 458.82 116.30 470.70 C 124.27 482.57 133.69 486.21 145.68 492.32 C 157.67 498.44 170.51 501.64 184.02 504.98 C 197.54 508.32 215.31 509.78 229.00 512.00
L 233.00 512.00
C 236.60 510.41 243.47 510.29 247.00 512.00
L 265.00 512.00
C 266.96 510.48 272.11 510.28 274.00 512.00
L 283.00 512.00
C 296.58 510.07 313.69 508.25 327.02 505.02 C 340.36 501.80 353.83 498.84 365.69 492.69 C 377.56 486.55 387.95 482.56 395.75 470.75 C 403.55 458.95 403.01 440.87 402.00 426.00 C 400.99 411.13 405.08 390.67 400.67 376.33 C 396.26 361.99 403.76 349.39 402.00 333.00
C 456.55 335.01 505.73 288.46 512.00 236.00
L 512.00 207.00
C 505.40 157.29 460.45 112.43 409.00 111.00
C 403.66 54.61 353.08 6.64 298.00 0.00
L 297.00 0.00
C 295.04 1.52 289.89 1.72 288.00 0.00
L 266.00 0.00
C 257.89 1.40 247.70 4.16 239.68 6.68 C 231.66 9.20 224.77 12.85 217.70 16.70 C 210.62 20.54 205.11 25.28 198.75 29.75 C 192.40 34.22 187.64 41.41 182.25 46.25 C 176.86 51.10 174.87 63.45 167.22 62.78 C 159.58 62.10 147.64 57.19 139.07 59.07 C 130.51 60.95 121.32 62.03 113.69 65.69 C 106.07 69.36 99.70 72.90 93.75 78.75 C 87.81 84.61 83.07 88.79 78.92 95.92 C 74.78 103.06 71.91 110.64 69.93 118.93 C 67.95 127.22 66.73 139.26 69.00 148.00
C 61.01 149.55 52.83 154.20 45.70 157.70 C 38.57 161.19 33.04 167.13 27.25 172.25 C 21.46 177.36 16.35 185.17 12.77 190.77 C 9.19 196.37 1.82 210.14 12.00 213.00
M 283.00 137.00 
C 305.52 139.18 331.52 146.02 352.69 152.31 C 373.87 158.59 394.73 179.63 373.25 195.25 C 351.76 210.87 334.50 211.31 310.33 217.33 C 286.16 223.34 254.55 221.44 230.00 221.00 C 205.45 220.56 181.37 211.47 159.78 206.22 C 138.19 200.98 117.02 178.30 138.25 163.25 C 159.47 148.20 176.49 145.50 201.01 141.01 C 225.52 136.52 256.98 134.48 283.00 137.00
M 384.00 209.00 
C 383.58 227.79 389.36 254.69 370.92 264.92 C 352.48 275.14 340.26 279.97 319.98 283.98 C 299.69 287.99 277.48 290.07 256.00 290.00 C 234.52 289.93 213.30 288.05 192.93 284.07 C 172.56 280.10 160.50 275.41 141.75 265.25 C 123.01 255.08 128.00 228.24 128.00 209.00
C 203.77 250.00 308.21 249.93 384.00 209.00
M 131.00 278.00 
C 134.36 277.92 139.37 285.22 144.08 285.92 C 148.78 286.63 153.35 291.40 158.68 292.32 C 164.00 293.24 169.63 296.52 175.22 297.78 C 180.82 299.04 187.15 299.71 193.00 301.00 C 198.85 302.29 204.68 303.43 211.00 304.00 C 217.32 304.57 224.35 305.98 231.00 306.00 C 237.65 306.02 244.11 307.57 251.00 307.00 C 257.89 306.43 265.13 307.41 272.00 307.00 C 278.87 306.59 285.32 305.84 292.07 305.07 C 298.82 304.31 304.24 304.31 311.00 303.00 C 317.77 301.69 320.97 301.27 328.22 299.22 C 335.47 297.18 337.48 298.02 346.02 295.02 C 354.57 292.03 367.55 287.18 375.23 282.23 C 382.91 277.28 387.22 276.89 383.07 286.07 C 378.92 295.26 368.72 301.52 359.77 305.77 C 350.83 310.03 337.53 313.70 327.99 315.99 C 318.46 318.28 317.90 318.66 309.99 319.99 C 302.08 321.32 298.27 321.38 291.00 322.00 C 283.73 322.62 279.09 323.65 272.00 324.00 C 264.91 324.35 257.01 323.61 250.00 324.00 C 242.99 324.39 236.43 323.68 229.93 323.07 C 223.42 322.46 217.15 322.08 210.98 321.02 C 204.80 319.97 197.72 319.87 191.98 318.02 C 186.23 316.18 180.33 315.99 174.98 314.02 C 169.62 312.05 164.46 310.33 159.32 308.68 C 154.18 307.02 149.16 303.57 144.75 301.25 C 140.35 298.92 136.11 295.09 132.75 292.25 C 129.39 289.41 124.63 278.15 131.00 278.00
M 384.00 311.00 
C 383.43 329.97 389.54 356.29 371.25 367.25 C 352.97 378.22 340.19 381.30 320.00 386.00 C 299.80 390.70 277.67 392.06 256.00 392.00 C 234.33 391.94 213.08 390.71 192.78 386.22 C 172.48 381.73 159.93 378.35 141.30 367.70 C 122.68 357.04 128.31 330.08 128.00 311.00
C 165.58 334.93 210.96 340.92 256.00 341.00 C 301.04 341.08 346.41 334.92 384.00 311.00
M 383.00 380.00 
C 381.54 404.26 355.56 410.59 333.98 416.98 C 312.39 423.36 280.03 426.95 256.00 427.00 C 231.97 427.05 199.57 423.33 177.98 417.02 C 156.38 410.72 130.54 404.05 129.00 380.00
C 166.50 403.57 211.25 409.12 256.00 409.00 C 300.75 408.88 345.47 403.70 383.00 380.00
M 384.00 413.00 
C 383.45 431.83 389.58 459.75 370.92 469.92 C 352.26 480.09 340.29 484.86 319.93 488.93 C 299.57 492.99 277.48 494.88 256.00 495.00 C 234.52 495.12 212.60 492.88 192.32 488.68 C 172.05 484.48 159.53 480.43 140.92 470.08 C 122.31 459.73 128.68 431.67 128.00 413.00
C 165.32 436.98 211.23 443.95 256.00 444.00 C 300.77 444.05 346.72 437.02 384.00 413.00 Z"/>
</g>
<g fill="#363636" fill-opacity="0.53" stroke="None">
<path d="
M 297.00 0.00 
L 288.00 0.00
C 289.89 1.72 295.04 1.52 297.00 0.00 Z"/>
</g>
<g fill="#000000" fill-opacity="0.00" stroke="None">
<path d="
M 512.00 207.00 
L 512.00 0.00
L 298.00 0.00
C 353.08 6.64 403.66 54.61 409.00 111.00
C 460.45 112.43 505.40 157.29 512.00 207.00 Z"/>
</g>
<g fill="#6CDBDC" fill-opacity="1.00" stroke="None">
<path d="
M 12.00 213.00 
C 12.33 217.94 6.44 224.90 9.00 230.00
C 22.53 238.35 16.42 262.60 26.23 275.77 C 36.04 288.94 42.73 299.35 57.92 307.08 C 73.12 314.81 93.07 317.33 111.00 316.00
C 113.30 302.91 107.41 285.51 112.22 273.22 C 117.04 260.94 110.43 251.88 111.00 238.00 C 111.57 224.12 111.12 207.44 111.00 194.00 C 110.88 180.56 110.38 167.68 119.25 158.25 C 128.12 148.81 134.10 145.43 144.92 139.92 C 155.75 134.42 165.90 132.10 177.78 128.78 C 189.66 125.46 202.26 123.84 215.00 122.00 C 227.73 120.15 242.49 119.97 256.00 120.00 C 269.51 120.03 285.21 120.18 297.99 122.01 C 310.77 123.83 323.13 125.72 334.99 129.01 C 346.85 132.30 357.02 134.65 367.77 140.23 C 378.52 145.81 384.56 149.19 393.25 158.75 C 401.94 168.32 401.13 181.64 401.00 195.00 C 400.87 208.36 400.66 225.23 401.00 239.00 C 401.34 252.77 394.92 261.77 400.01 273.99 C 405.10 286.22 398.25 303.04 401.00 316.00
C 446.92 316.53 494.00 276.53 494.00 229.00
C 494.00 224.00 494.10 219.00 494.00 214.00
C 493.73 200.54 488.31 186.95 482.31 175.70 C 476.30 164.44 469.00 157.65 459.75 149.25 C 450.50 140.85 438.09 135.67 427.07 131.93 C 416.06 128.18 395.28 131.17 392.33 117.67 C 389.38 104.17 388.21 90.86 381.77 79.23 C 375.33 67.60 370.09 59.56 360.75 50.25 C 351.41 40.94 344.18 35.41 332.70 29.31 C 321.21 23.20 307.22 19.55 294.02 17.98 C 280.83 16.40 262.44 17.28 250.22 21.22 C 238.01 25.17 227.59 30.58 217.70 37.70 C 207.80 44.81 198.40 51.70 192.25 62.25 C 186.11 72.81 178.15 85.92 165.02 79.98 C 151.90 74.03 133.69 76.23 122.08 81.08 C 110.46 85.92 101.83 92.60 95.30 103.30 C 88.77 114.00 81.40 127.27 85.67 141.33 C 89.94 155.39 78.75 166.64 65.02 168.02 C 51.30 169.41 46.12 182.01 36.25 188.25 C 26.37 194.49 26.47 217.07 12.00 213.00 Z"/>
</g>
<g fill="#4A87A8" fill-opacity="1.00" stroke="None">
<path d="
M 283.00 137.00 
C 256.98 134.48 225.52 136.52 201.01 141.01 C 176.49 145.50 159.47 148.20 138.25 163.25 C 117.02 178.30 138.19 200.98 159.78 206.22 C 181.37 211.47 205.45 220.56 230.00 221.00 C 254.55 221.44 286.16 223.34 310.33 217.33 C 334.50 211.31 351.76 210.87 373.25 195.25 C 394.73 179.63 373.87 158.59 352.69 152.31 C 331.52 146.02 305.52 139.18 283.00 137.00 Z"/>
</g>
<g fill="#3D7389" fill-opacity="1.00" stroke="None">
<path d="
M 384.00 209.00 
C 308.21 249.93 203.77 250.00 128.00 209.00
C 128.00 228.24 123.01 255.08 141.75 265.25 C 160.50 275.41 172.56 280.10 192.93 284.07 C 213.30 288.05 234.52 289.93 256.00 290.00 C 277.48 290.07 299.69 287.99 319.98 283.98 C 340.26 279.97 352.48 275.14 370.92 264.92 C 389.36 254.69 383.58 227.79 384.00 209.00 Z"/>
</g>
<g fill="#518687" fill-opacity="1.00" stroke="None">
<path d="
M 494.00 229.00 
C 494.45 224.31 494.58 218.78 494.00 214.00
C 494.10 219.00 494.00 224.00 494.00 229.00 Z"/>
</g>
<g fill="#000000" fill-opacity="0.00" stroke="None">
<path d="
M 283.00 512.00 
L 512.00 512.00
L 512.00 236.00
C 505.73 288.46 456.55 335.01 402.00 333.00
C 403.76 349.39 396.26 361.99 400.67 376.33 C 405.08 390.67 400.99 411.13 402.00 426.00 C 403.01 440.87 403.55 458.95 395.75 470.75 C 387.95 482.56 377.56 486.55 365.69 492.69 C 353.83 498.84 340.36 501.80 327.02 505.02 C 313.69 508.25 296.58 510.07 283.00 512.00 Z"/>
</g>
<g fill="#000000" fill-opacity="0.00" stroke="None">
<path d="
M 0.00 512.00 
L 229.00 512.00
C 215.31 509.78 197.54 508.32 184.02 504.98 C 170.51 501.64 157.67 498.44 145.68 492.32 C 133.69 486.21 124.27 482.57 116.30 470.70 C 108.34 458.82 109.21 439.93 110.00 425.00 C 110.79 410.07 107.30 389.89 111.68 375.68 C 116.06 361.46 107.72 349.14 110.00 333.00
C 58.32 340.99 7.40 303.34 0.00 253.00
L 0.00 512.00 Z"/>
</g>
<g fill="#4A86A6" fill-opacity="1.00" stroke="None">
<path d="
M 131.00 278.00 
C 124.63 278.15 129.39 289.41 132.75 292.25 C 136.11 295.09 140.35 298.92 144.75 301.25 C 149.16 303.57 154.18 307.02 159.32 308.68 C 164.46 310.33 169.62 312.05 174.98 314.02 C 180.33 315.99 186.23 316.18 191.98 318.02 C 197.72 319.87 204.80 319.97 210.98 321.02 C 217.15 322.08 223.42 322.46 229.93 323.07 C 236.43 323.68 242.99 324.39 250.00 324.00 C 257.01 323.61 264.91 324.35 272.00 324.00 C 279.09 323.65 283.73 322.62 291.00 322.00 C 298.27 321.38 302.08 321.32 309.99 319.99 C 317.90 318.66 318.46 318.28 327.99 315.99 C 337.53 313.70 350.83 310.03 359.77 305.77 C 368.72 301.52 378.92 295.26 383.07 286.07 C 387.22 276.89 382.91 277.28 375.23 282.23 C 367.55 287.18 354.57 292.03 346.02 295.02 C 337.48 298.02 335.47 297.18 328.22 299.22 C 320.97 301.27 317.77 301.69 311.00 303.00 C 304.24 304.31 298.82 304.31 292.07 305.07 C 285.32 305.84 278.87 306.59 272.00 307.00 C 265.13 307.41 257.89 306.43 251.00 307.00 C 244.11 307.57 237.65 306.02 231.00 306.00 C 224.35 305.98 217.32 304.57 211.00 304.00 C 204.68 303.43 198.85 302.29 193.00 301.00 C 187.15 299.71 180.82 299.04 175.22 297.78 C 169.63 296.52 164.00 293.24 158.68 292.32 C 153.35 291.40 148.78 286.63 144.08 285.92 C 139.37 285.22 134.36 277.92 131.00 278.00 Z"/>
</g>
<g fill="#3D7389" fill-opacity="1.00" stroke="None">
<path d="
M 384.00 311.00 
C 346.41 334.92 301.04 341.08 256.00 341.00 C 210.96 340.92 165.58 334.93 128.00 311.00
C 128.31 330.08 122.68 357.04 141.30 367.70 C 159.93 378.35 172.48 381.73 192.78 386.22 C 213.08 390.71 234.33 391.94 256.00 392.00 C 277.67 392.06 299.80 390.70 320.00 386.00 C 340.19 381.30 352.97 378.22 371.25 367.25 C 389.54 356.29 383.43 329.97 384.00 311.00 Z"/>
</g>
<g fill="#4A86A6" fill-opacity="1.00" stroke="None">
<path d="
M 383.00 380.00 
C 345.47 403.70 300.75 408.88 256.00 409.00 C 211.25 409.12 166.50 403.57 129.00 380.00
C 130.54 404.05 156.38 410.72 177.98 417.02 C 199.57 423.33 231.97 427.05 256.00 427.00 C 280.03 426.95 312.39 423.36 333.98 416.98 C 355.56 410.59 381.54 404.26 383.00 380.00 Z"/>
</g>
<g fill="#3D7389" fill-opacity="1.00" stroke="None">
<path d="
M 384.00 413.00 
C 346.72 437.02 300.77 444.05 256.00 444.00 C 211.23 443.95 165.32 436.98 128.00 413.00
C 128.68 431.67 122.31 459.73 140.92 470.08 C 159.53 480.43 172.05 484.48 192.32 488.68 C 212.60 492.88 234.52 495.12 256.00 495.00 C 277.48 494.88 299.57 492.99 319.93 488.93 C 340.29 484.86 352.26 480.09 370.92 469.92 C 389.58 459.75 383.45 431.83 384.00 413.00 Z"/>
</g>
<g fill="#363636" fill-opacity="0.58" stroke="None">
<path d="
M 233.00 512.00 
L 247.00 512.00
C 243.47 510.29 236.60 510.41 233.00 512.00 Z"/>
</g>
<g fill="#373737" fill-opacity="0.70" stroke="None">
<path d="
M 265.00 512.00 
L 274.00 512.00
C 272.11 510.28 266.96 510.48 265.00 512.00 Z"/>
</g>
</svg>