<svg xmlns="http://www.w3.org/2000/svg" xmlns:v="https://svgstorm.com"
viewBox = "0 0 512 512"
width="512"
height="512">
<g fill="None" fill-opacity="0.0" stroke="#000000" stroke-opacity="0.00" stroke-width="0.3"><path d="
M 0.00 512.00 
L 512.00 512.00
L 512.00 0.00
L 0.00 0.00
L 0.00 512.00
M 162.00 47.00 
C 171.17 34.00 181.93 41.88 189.75 51.25 C 197.58 60.62 206.25 67.06 214.25 75.75 C 222.24 84.45 230.70 91.87 238.75 100.25 C 246.80 108.62 254.66 116.02 262.75 124.25 C 270.84 132.48 279.12 140.56 287.25 148.75 C 295.38 156.94 303.61 165.09 311.75 173.25 C 319.89 181.41 328.11 189.62 336.25 197.75 C 344.38 205.88 352.09 213.62 360.25 221.75 C 368.41 229.89 376.51 238.08 384.75 246.25 C 392.99 254.42 400.88 262.55 409.25 270.75 C 417.61 278.95 425.13 286.99 433.75 295.25 C 442.38 303.50 448.48 310.83 457.75 319.25 C 467.03 327.67 471.60 334.95 482.25 343.75 C 492.90 352.55 480.10 363.18 471.75 370.75 C 463.40 378.33 455.60 386.87 447.75 394.75 C 439.90 402.64 429.83 416.76 419.92 406.08 C 410.01 395.41 387.10 415.18 396.93 426.07 C 406.76 436.96 397.67 446.31 388.25 454.25 C 378.83 462.18 372.52 470.67 364.25 478.25 C 355.98 485.83 346.71 500.98 337.25 491.75 C 327.79 482.52 321.49 475.88 312.75 467.25 C 304.02 458.62 296.64 451.10 288.25 442.75 C 279.86 434.41 272.48 426.96 264.25 418.75 C 256.01 410.54 247.93 402.42 239.75 394.25 C 231.57 386.08 223.38 377.88 215.25 369.75 C 207.11 361.62 199.38 353.87 191.25 345.75 C 183.12 337.63 174.90 329.38 166.75 321.25 C 158.60 313.12 150.40 304.87 142.25 296.75 C 134.09 288.63 125.90 280.32 117.75 272.25 C 109.60 264.18 101.94 256.27 93.75 248.25 C 85.56 240.23 77.55 231.67 69.25 223.75 C 60.95 215.83 53.24 206.91 44.75 199.25 C 36.26 191.59 23.54 180.12 39.00 172.00
C 37.21 163.87 13.84 153.66 21.26 144.26 C 28.67 134.85 36.67 128.55 45.25 120.25 C 53.83 111.95 66.14 132.11 72.00 137.00
C 76.98 135.60 79.53 129.49 84.00 127.00
C 76.03 116.79 58.72 105.53 71.25 94.25 C 83.77 82.97 89.58 76.32 100.75 64.75 C 111.92 53.18 119.03 48.86 129.75 35.75 C 140.47 22.64 153.43 34.73 162.00 47.00 Z"/>
</g>
<g fill="None" fill-opacity="0.0" stroke="#000000" stroke-opacity="1.00" stroke-width="0.3"><path d="
M 162.00 47.00 
C 153.43 34.73 140.47 22.64 129.75 35.75 C 119.03 48.86 111.92 53.18 100.75 64.75 C 89.58 76.32 83.77 82.97 71.25 94.25 C 58.72 105.53 76.03 116.79 84.00 127.00
C 79.53 129.49 76.98 135.60 72.00 137.00
C 66.14 132.11 53.83 111.95 45.25 120.25 C 36.67 128.55 28.67 134.85 21.26 144.26 C 13.84 153.66 37.21 163.87 39.00 172.00
C 23.54 180.12 36.26 191.59 44.75 199.25 C 53.24 206.91 60.95 215.83 69.25 223.75 C 77.55 231.67 85.56 240.23 93.75 248.25 C 101.94 256.27 109.60 264.18 117.75 272.25 C 125.90 280.32 134.09 288.63 142.25 296.75 C 150.40 304.87 158.60 313.12 166.75 321.25 C 174.90 329.38 183.12 337.63 191.25 345.75 C 199.38 353.87 207.11 361.62 215.25 369.75 C 223.38 377.88 231.57 386.08 239.75 394.25 C 247.93 402.42 256.01 410.54 264.25 418.75 C 272.48 426.96 279.86 434.41 288.25 442.75 C 296.64 451.10 304.02 458.62 312.75 467.25 C 321.49 475.88 327.79 482.52 337.25 491.75 C 346.71 500.98 355.98 485.83 364.25 478.25 C 372.52 470.67 378.83 462.18 388.25 454.25 C 397.67 446.31 406.76 436.96 396.93 426.07 C 387.10 415.18 410.01 395.41 419.92 406.08 C 429.83 416.76 439.90 402.64 447.75 394.75 C 455.60 386.87 463.40 378.33 471.75 370.75 C 480.10 363.18 492.90 352.55 482.25 343.75 C 471.60 334.95 467.03 327.67 457.75 319.25 C 448.48 310.83 442.38 303.50 433.75 295.25 C 425.13 286.99 417.61 278.95 409.25 270.75 C 400.88 262.55 392.99 254.42 384.75 246.25 C 376.51 238.08 368.41 229.89 360.25 221.75 C 352.09 213.62 344.38 205.88 336.25 197.75 C 328.11 189.62 319.89 181.41 311.75 173.25 C 303.61 165.09 295.38 156.94 287.25 148.75 C 279.12 140.56 270.84 132.48 262.75 124.25 C 254.66 116.02 246.80 108.62 238.75 100.25 C 230.70 91.87 222.24 84.45 214.25 75.75 C 206.25 67.06 197.58 60.62 189.75 51.25 C 181.93 41.88 171.17 34.00 162.00 47.00
M 118.00 91.00 
C 116.81 91.33 107.00 83.67 107.00 81.00
C 107.00 76.84 115.59 73.55 117.75 69.75 C 119.91 65.95 125.84 62.59 128.75 58.75 C 131.66 54.92 137.42 51.18 140.00 47.00
C 144.14 49.70 146.91 54.35 151.00 57.00
C 141.89 69.24 129.07 80.13 118.00 91.00
M 175.00 58.00 
C 272.17 156.00 370.05 253.88 468.00 351.00
C 462.21 358.35 454.38 367.65 446.75 373.75 C 439.12 379.85 432.94 394.17 422.92 390.08 C 412.91 385.99 397.54 388.98 389.92 396.92 C 382.29 404.86 376.35 418.94 381.33 429.67 C 386.31 440.41 373.46 445.67 366.75 453.75 C 360.04 461.83 351.30 467.75 345.00 476.00
C 245.58 380.41 148.88 279.72 50.00 183.00
C 91.17 141.00 133.05 99.12 175.00 58.00
M 96.00 92.00 
C 98.87 95.64 102.36 99.23 106.00 102.00
C 104.60 106.98 98.49 109.53 96.00 114.00
C 91.02 112.60 88.47 106.49 84.00 104.00
C 87.52 99.68 91.70 95.44 96.00 92.00
M 51.00 138.00 
C 53.87 141.64 57.36 145.23 61.00 148.00
C 58.30 152.14 53.65 154.91 51.00 159.00
C 46.02 157.60 43.47 151.49 39.00 149.00
C 42.58 145.16 46.15 139.85 51.00 138.00 Z"/>
</g>
<g fill="None" fill-opacity="0.0" stroke="#E1C542" stroke-opacity="1.00" stroke-width="0.3"><path d="
M 107.00 81.00 
C 111.14 81.72 113.91 91.00 118.00 91.00
C 129.07 80.13 141.89 69.24 151.00 57.00
C 146.91 54.35 144.14 49.70 140.00 47.00
C 137.42 51.18 131.66 54.92 128.75 58.75 C 125.84 62.59 119.91 65.95 117.75 69.75 C 115.59 73.55 107.00 76.84 107.00 81.00 Z"/>
</g>
<g fill="None" fill-opacity="0.0" stroke="#008B53" stroke-opacity="1.00" stroke-width="0.3"><path d="
M 175.00 58.00 
C 133.05 99.12 91.17 141.00 50.00 183.00
C 148.88 279.72 245.58 380.41 345.00 476.00
C 351.30 467.75 360.04 461.83 366.75 453.75 C 373.46 445.67 386.31 440.41 381.33 429.67 C 376.35 418.94 382.29 404.86 389.92 396.92 C 397.54 388.98 412.91 385.99 422.92 390.08 C 432.94 394.17 439.12 379.85 446.75 373.75 C 454.38 367.65 462.21 358.35 468.00 351.00
C 370.05 253.88 272.17 156.00 175.00 58.00
M 180.00 109.00 
C 189.20 94.10 199.64 105.78 207.75 114.25 C 215.87 122.72 230.05 133.15 214.00 142.00
C 217.83 148.97 233.47 155.63 225.75 164.75 C 218.02 173.86 208.18 159.66 203.00 154.00
C 197.06 157.62 188.71 166.26 196.25 170.75 C 203.79 175.25 208.70 185.05 200.30 189.30 C 191.91 193.55 186.20 181.26 181.00 177.00
C 176.02 178.40 173.47 184.51 169.00 187.00
C 170.57 194.78 183.71 196.70 182.00 206.00 C 180.28 215.31 168.23 214.36 163.75 205.25 C 159.27 196.14 150.63 204.55 146.00 210.00
C 149.88 216.85 165.58 223.79 157.75 232.75 C 149.91 241.70 140.23 227.59 135.00 222.00
C 125.80 236.90 115.36 225.22 107.25 216.75 C 99.13 208.28 84.95 197.85 101.00 189.00
C 97.17 182.03 81.53 175.37 89.25 166.25 C 96.98 157.14 106.82 171.34 112.00 177.00
C 117.85 173.28 127.14 164.27 118.25 159.75 C 109.36 155.23 107.23 143.57 116.03 141.03 C 124.82 138.49 127.97 149.81 134.00 154.00
C 138.98 152.60 141.53 146.49 146.00 144.00
C 144.58 136.10 131.18 134.22 132.35 125.31 C 133.53 116.39 146.26 115.51 150.75 125.25 C 155.24 134.99 164.28 126.81 169.00 121.00
C 165.24 114.35 149.15 106.89 156.92 97.92 C 164.70 88.96 174.98 103.61 180.00 109.00
M 253.00 160.00 
C 259.56 161.76 260.36 169.53 266.75 173.25 C 273.14 176.96 265.69 190.73 258.78 186.22 C 251.87 181.71 250.72 178.63 244.75 173.25 C 238.78 167.87 245.02 157.86 253.00 160.00
M 219.00 307.00 
C 213.78 311.98 207.07 324.26 198.75 317.25 C 190.44 310.23 202.74 301.59 208.00 297.00
C 206.60 292.02 200.49 289.47 198.00 285.00
C 191.40 287.53 185.15 301.34 176.77 294.23 C 168.39 287.12 179.66 278.41 185.00 274.00
C 183.60 269.02 177.49 266.47 175.00 262.00
C 169.20 265.82 162.80 277.69 154.78 271.22 C 146.76 264.75 157.40 254.96 163.00 251.00
C 156.86 238.68 172.88 231.00 180.25 222.25 C 187.61 213.50 198.11 205.44 205.75 196.75 C 213.40 188.06 224.11 174.75 233.75 185.25 C 243.40 195.74 249.41 201.16 259.25 210.75 C 269.09 220.34 273.22 226.31 284.25 235.75 C 295.27 245.20 282.28 256.67 273.25 264.25 C 264.21 271.83 257.26 281.97 248.25 289.25 C 239.24 296.52 231.55 313.46 219.00 307.00
M 295.00 201.00 
C 300.82 203.15 302.31 211.22 308.25 214.75 C 314.19 218.29 305.05 232.00 298.98 227.02 C 292.90 222.04 290.91 219.42 285.25 213.75 C 279.59 208.08 286.52 197.87 295.00 201.00
M 331.00 237.00 
C 337.49 239.28 341.49 250.26 347.75 254.25 C 354.01 258.24 358.73 266.36 364.75 271.25 C 370.77 276.14 375.74 282.97 381.75 288.25 C 387.76 293.52 393.08 300.42 399.25 305.75 C 405.41 311.08 409.64 317.66 416.25 322.75 C 422.86 327.85 428.97 336.40 421.75 342.75 C 414.53 349.10 411.15 353.67 404.75 359.75 C 398.36 365.83 393.30 371.21 387.25 377.25 C 381.20 383.29 376.13 388.06 370.25 394.25 C 364.37 400.43 359.11 404.57 353.25 411.25 C 347.39 417.93 342.21 420.40 336.25 428.25 C 330.29 436.10 321.02 432.66 315.75 425.25 C 310.48 417.84 304.23 414.76 298.75 408.25 C 293.27 401.74 287.32 397.41 281.75 391.25 C 276.18 385.08 270.34 380.40 264.75 374.25 C 259.16 368.09 252.76 363.15 247.25 356.75 C 241.74 350.35 235.51 346.86 230.25 339.75 C 224.99 332.64 236.08 324.35 241.25 319.25 C 246.42 314.14 252.75 307.65 258.25 302.25 C 263.75 296.84 270.11 290.21 275.75 284.75 C 281.40 279.30 287.02 273.05 292.75 267.75 C 298.48 262.45 303.89 255.65 309.75 250.75 C 315.62 245.86 321.99 233.83 331.00 237.00 Z"/>
</g>
<g fill="None" fill-opacity="0.0" stroke="#008B53" stroke-opacity="1.00" stroke-width="0.3"><path d="
M 118.00 91.00 
C 113.91 91.00 111.14 81.72 107.00 81.00
C 107.00 83.67 116.81 91.33 118.00 91.00 Z"/>
</g>
<g fill="None" fill-opacity="0.0" stroke="#E1C542" stroke-opacity="1.00" stroke-width="0.3"><path d="
M 96.00 92.00 
C 91.70 95.44 87.52 99.68 84.00 104.00
C 88.47 106.49 91.02 112.60 96.00 114.00
C 98.49 109.53 104.60 106.98 106.00 102.00
C 102.36 99.23 98.87 95.64 96.00 92.00 Z"/>
</g>
<g fill="None" fill-opacity="0.0" stroke="#000000" stroke-opacity="1.00" stroke-width="0.3"><path d="
M 180.00 109.00 
C 174.98 103.61 164.70 88.96 156.92 97.92 C 149.15 106.89 165.24 114.35 169.00 121.00
C 164.28 126.81 155.24 134.99 150.75 125.25 C 146.26 115.51 133.53 116.39 132.35 125.31 C 131.18 134.22 144.58 136.10 146.00 144.00
C 141.53 146.49 138.98 152.60 134.00 154.00
C 127.97 149.81 124.82 138.49 116.03 141.03 C 107.23 143.57 109.36 155.23 118.25 159.75 C 127.14 164.27 117.85 173.28 112.00 177.00
C 106.82 171.34 96.98 157.14 89.25 166.25 C 81.53 175.37 97.17 182.03 101.00 189.00
C 84.95 197.85 99.13 208.28 107.25 216.75 C 115.36 225.22 125.80 236.90 135.00 222.00
C 140.23 227.59 149.91 241.70 157.75 232.75 C 165.58 223.79 149.88 216.85 146.00 210.00
C 150.63 204.55 159.27 196.14 163.75 205.25 C 168.23 214.36 180.28 215.31 182.00 206.00 C 183.71 196.70 170.57 194.78 169.00 187.00
C 173.47 184.51 176.02 178.40 181.00 177.00
C 186.20 181.26 191.91 193.55 200.30 189.30 C 208.70 185.05 203.79 175.25 196.25 170.75 C 188.71 166.26 197.06 157.62 203.00 154.00
C 208.18 159.66 218.02 173.86 225.75 164.75 C 233.47 155.63 217.83 148.97 214.00 142.00
C 230.05 133.15 215.87 122.72 207.75 114.25 C 199.64 105.78 189.20 94.10 180.00 109.00
M 192.00 120.00 
C 195.19 123.98 199.03 127.89 203.00 131.00
C 190.00 144.44 176.83 158.31 163.25 171.25 C 149.67 184.18 136.99 200.04 122.00 210.00
C 113.90 204.15 112.21 197.36 120.25 191.25 C 128.29 185.14 131.33 179.26 138.25 173.25 C 145.17 167.24 149.34 161.70 155.75 155.75 C 162.16 149.80 167.49 143.67 173.75 137.75 C 180.01 131.84 185.45 125.37 192.00 120.00 Z"/>
</g>
<g fill="None" fill-opacity="0.0" stroke="#CACFCE" stroke-opacity="1.00" stroke-width="0.3"><path d="
M 192.00 120.00 
C 185.45 125.37 180.01 131.84 173.75 137.75 C 167.49 143.67 162.16 149.80 155.75 155.75 C 149.34 161.70 145.17 167.24 138.25 173.25 C 131.33 179.26 128.29 185.14 120.25 191.25 C 112.21 197.36 113.90 204.15 122.00 210.00
C 136.99 200.04 149.67 184.18 163.25 171.25 C 176.83 158.31 190.00 144.44 203.00 131.00
C 199.03 127.89 195.19 123.98 192.00 120.00 Z"/>
</g>
<g fill="None" fill-opacity="0.0" stroke="#E1C542" stroke-opacity="1.00" stroke-width="0.3"><path d="
M 51.00 138.00 
C 46.15 139.85 42.58 145.16 39.00 149.00
C 43.47 151.49 46.02 157.60 51.00 159.00
C 53.65 154.91 58.30 152.14 61.00 148.00
C 57.36 145.23 53.87 141.64 51.00 138.00 Z"/>
</g>
<g fill="None" fill-opacity="0.0" stroke="#000000" stroke-opacity="1.00" stroke-width="0.3"><path d="
M 253.00 160.00 
C 245.02 157.86 238.78 167.87 244.75 173.25 C 250.72 178.63 251.87 181.71 258.78 186.22 C 265.69 190.73 273.14 176.96 266.75 173.25 C 260.36 169.53 259.56 161.76 253.00 160.00 Z"/>
</g>
<g fill="None" fill-opacity="0.0" stroke="#000000" stroke-opacity="1.00" stroke-width="0.3"><path d="
M 219.00 307.00 
C 231.55 313.46 239.24 296.52 248.25 289.25 C 257.26 281.97 264.21 271.83 273.25 264.25 C 282.28 256.67 295.27 245.20 284.25 235.75 C 273.22 226.31 269.09 220.34 259.25 210.75 C 249.41 201.16 243.40 195.74 233.75 185.25 C 224.11 174.75 213.40 188.06 205.75 196.75 C 198.11 205.44 187.61 213.50 180.25 222.25 C 172.88 231.00 156.86 238.68 163.00 251.00
C 157.40 254.96 146.76 264.75 154.78 271.22 C 162.80 277.69 169.20 265.82 175.00 262.00
C 177.49 266.47 183.60 269.02 185.00 274.00
C 179.66 278.41 168.39 287.12 176.77 294.23 C 185.15 301.34 191.40 287.53 198.00 285.00
C 200.49 289.47 206.60 292.02 208.00 297.00
C 202.74 301.59 190.44 310.23 198.75 317.25 C 207.07 324.26 213.78 311.98 219.00 307.00
M 266.00 240.00 
C 267.18 241.38 268.15 243.39 270.00 244.00
C 257.40 260.41 239.73 274.12 226.00 290.00
C 210.17 275.66 195.79 259.29 180.00 245.00
C 194.93 229.89 209.77 213.08 226.00 200.00
C 231.07 200.42 234.72 209.87 239.25 212.75 C 243.78 215.64 248.35 222.49 252.75 226.25 C 257.15 230.00 262.25 235.61 266.00 240.00 Z"/>
</g>
<g fill="None" fill-opacity="0.0" stroke="#CACFCE" stroke-opacity="1.00" stroke-width="0.3"><path d="
M 266.00 240.00 
C 252.75 226.75 238.47 213.93 226.00 200.00
C 209.77 213.08 194.93 229.89 180.00 245.00
C 195.79 259.29 210.17 275.66 226.00 290.00
C 239.73 274.12 257.40 260.41 270.00 244.00
C 268.15 243.39 267.18 241.38 266.00 240.00 Z"/>
</g>
<g fill="None" fill-opacity="0.0" stroke="#008B53" stroke-opacity="1.00" stroke-width="0.3"><path d="
M 266.00 240.00 
C 262.25 235.61 257.15 230.00 252.75 226.25 C 248.35 222.49 243.78 215.64 239.25 212.75 C 234.72 209.87 231.07 200.42 226.00 200.00
C 238.47 213.93 252.75 226.75 266.00 240.00 Z"/>
</g>
<g fill="None" fill-opacity="0.0" stroke="#000000" stroke-opacity="1.00" stroke-width="0.3"><path d="
M 295.00 201.00 
C 286.52 197.87 279.59 208.08 285.25 213.75 C 290.91 219.42 292.90 222.04 298.98 227.02 C 305.05 232.00 314.19 218.29 308.25 214.75 C 302.31 211.22 300.82 203.15 295.00 201.00 Z"/>
</g>
<g fill="None" fill-opacity="0.0" stroke="#000000" stroke-opacity="1.00" stroke-width="0.3"><path d="
M 331.00 237.00 
C 321.99 233.83 315.62 245.86 309.75 250.75 C 303.89 255.65 298.48 262.45 292.75 267.75 C 287.02 273.05 281.40 279.30 275.75 284.75 C 270.11 290.21 263.75 296.84 258.25 302.25 C 252.75 307.65 246.42 314.14 241.25 319.25 C 236.08 324.35 224.99 332.64 230.25 339.75 C 235.51 346.86 241.74 350.35 247.25 356.75 C 252.76 363.15 259.16 368.09 264.75 374.25 C 270.34 380.40 276.18 385.08 281.75 391.25 C 287.32 397.41 293.27 401.74 298.75 408.25 C 304.23 414.76 310.48 417.84 315.75 425.25 C 321.02 432.66 330.29 436.10 336.25 428.25 C 342.21 420.40 347.39 417.93 353.25 411.25 C 359.11 404.57 364.37 400.43 370.25 394.25 C 376.13 388.06 381.20 383.29 387.25 377.25 C 393.30 371.21 398.36 365.83 404.75 359.75 C 411.15 353.67 414.53 349.10 421.75 342.75 C 428.97 336.40 422.86 327.85 416.25 322.75 C 409.64 317.66 405.41 311.08 399.25 305.75 C 393.08 300.42 387.76 293.52 381.75 288.25 C 375.74 282.97 370.77 276.14 364.75 271.25 C 358.73 266.36 354.01 258.24 347.75 254.25 C 341.49 250.26 337.49 239.28 331.00 237.00
M 328.00 256.00 
C 353.50 282.33 379.71 308.55 406.00 334.00
C 382.08 361.75 353.05 386.78 328.00 414.00
C 300.25 390.08 275.22 361.05 248.00 336.00
C 274.17 309.00 301.05 282.12 328.00 256.00 Z"/>
</g>
<g fill="None" fill-opacity="0.0" stroke="#CACFCE" stroke-opacity="1.00" stroke-width="0.3"><path d="
M 328.00 256.00 
C 301.05 282.12 274.17 309.00 248.00 336.00
C 275.22 361.05 300.25 390.08 328.00 414.00
C 353.05 386.78 382.08 361.75 406.00 334.00
C 379.71 308.55 353.50 282.33 328.00 256.00
M 339.00 305.00 
C 334.68 302.36 331.36 297.56 328.00 294.00
C 320.07 293.34 317.61 311.08 307.78 306.22 C 297.95 301.36 304.68 291.33 310.75 286.75 C 316.83 282.17 322.90 270.21 331.07 274.93 C 339.25 279.64 340.56 285.85 348.25 291.75 C 355.94 297.65 349.53 311.45 339.00 305.00
M 315.00 365.00 
C 319.90 367.26 323.12 373.64 327.00 377.00
C 334.01 377.00 332.87 365.84 340.25 364.25 C 347.63 362.65 355.26 368.41 350.00 377.00
C 346.54 382.65 338.52 390.47 333.00 394.00
C 321.10 401.60 319.14 386.96 309.75 382.25 C 300.37 377.54 300.63 358.35 315.00 365.00 Z"/>
</g>
<g fill="None" fill-opacity="0.0" stroke="#000000" stroke-opacity="1.00" stroke-width="0.3"><path d="
M 328.00 294.00 
C 331.93 294.33 336.12 302.92 339.00 305.00
C 349.53 311.45 355.94 297.65 348.25 291.75 C 340.56 285.85 339.25 279.64 331.07 274.93 C 322.90 270.21 316.83 282.17 310.75 286.75 C 304.68 291.33 297.95 301.36 307.78 306.22 C 317.61 311.08 320.07 293.34 328.00 294.00 Z"/>
</g>
<g fill="None" fill-opacity="0.0" stroke="#008B53" stroke-opacity="1.00" stroke-width="0.3"><path d="
M 339.00 305.00 
C 336.12 302.92 331.93 294.33 328.00 294.00
C 331.36 297.56 334.68 302.36 339.00 305.00 Z"/>
</g>
<g fill="None" fill-opacity="0.0" stroke="#000000" stroke-opacity="1.00" stroke-width="0.3"><path d="
M 333.00 394.00 
C 338.08 390.19 346.33 382.08 350.00 377.00
C 355.26 368.41 347.63 362.65 340.25 364.25 C 332.87 365.84 334.01 377.00 327.00 377.00
C 322.82 377.00 318.26 366.80 315.00 365.00
C 300.63 358.35 300.37 377.54 309.75 382.25 C 319.14 386.96 321.10 401.60 333.00 394.00 Z"/>
</g>
<g fill="None" fill-opacity="0.0" stroke="#008B53" stroke-opacity="1.00" stroke-width="0.3"><path d="
M 327.00 377.00 
C 323.12 373.64 319.90 367.26 315.00 365.00
C 318.26 366.80 322.82 377.00 327.00 377.00 Z"/>
</g>
<g fill="None" fill-opacity="0.0" stroke="#008B53" stroke-opacity="1.00" stroke-width="0.3"><path d="
M 333.00 394.00 
C 338.52 390.47 346.54 382.65 350.00 377.00
C 346.33 382.08 338.08 390.19 333.00 394.00 Z"/>
</g>
<g fill="#000000" fill-opacity="0.00" stroke="None">
<path d="
M 0.00 512.00 
L 512.00 512.00
L 512.00 0.00
L 0.00 0.00
L 0.00 512.00
M 162.00 47.00 
C 171.17 34.00 181.93 41.88 189.75 51.25 C 197.58 60.62 206.25 67.06 214.25 75.75 C 222.24 84.45 230.70 91.87 238.75 100.25 C 246.80 108.62 254.66 116.02 262.75 124.25 C 270.84 132.48 279.12 140.56 287.25 148.75 C 295.38 156.94 303.61 165.09 311.75 173.25 C 319.89 181.41 328.11 189.62 336.25 197.75 C 344.38 205.88 352.09 213.62 360.25 221.75 C 368.41 229.89 376.51 238.08 384.75 246.25 C 392.99 254.42 400.88 262.55 409.25 270.75 C 417.61 278.95 425.13 286.99 433.75 295.25 C 442.38 303.50 448.48 310.83 457.75 319.25 C 467.03 327.67 471.60 334.95 482.25 343.75 C 492.90 352.55 480.10 363.18 471.75 370.75 C 463.40 378.33 455.60 386.87 447.75 394.75 C 439.90 402.64 429.83 416.76 419.92 406.08 C 410.01 395.41 387.10 415.18 396.93 426.07 C 406.76 436.96 397.67 446.31 388.25 454.25 C 378.83 462.18 372.52 470.67 364.25 478.25 C 355.98 485.83 346.71 500.98 337.25 491.75 C 327.79 482.52 321.49 475.88 312.75 467.25 C 304.02 458.62 296.64 451.10 288.25 442.75 C 279.86 434.41 272.48 426.96 264.25 418.75 C 256.01 410.54 247.93 402.42 239.75 394.25 C 231.57 386.08 223.38 377.88 215.25 369.75 C 207.11 361.62 199.38 353.87 191.25 345.75 C 183.12 337.63 174.90 329.38 166.75 321.25 C 158.60 313.12 150.40 304.87 142.25 296.75 C 134.09 288.63 125.90 280.32 117.75 272.25 C 109.60 264.18 101.94 256.27 93.75 248.25 C 85.56 240.23 77.55 231.67 69.25 223.75 C 60.95 215.83 53.24 206.91 44.75 199.25 C 36.26 191.59 23.54 180.12 39.00 172.00
C 37.21 163.87 13.84 153.66 21.26 144.26 C 28.67 134.85 36.67 128.55 45.25 120.25 C 53.83 111.95 66.14 132.11 72.00 137.00
C 76.98 135.60 79.53 129.49 84.00 127.00
C 76.03 116.79 58.72 105.53 71.25 94.25 C 83.77 82.97 89.58 76.32 100.75 64.75 C 111.92 53.18 119.03 48.86 129.75 35.75 C 140.47 22.64 153.43 34.73 162.00 47.00 Z"/>
</g>
<g fill="#000000" fill-opacity="1.00" stroke="None">
<path d="
M 162.00 47.00 
C 153.43 34.73 140.47 22.64 129.75 35.75 C 119.03 48.86 111.92 53.18 100.75 64.75 C 89.58 76.32 83.77 82.97 71.25 94.25 C 58.72 105.53 76.03 116.79 84.00 127.00
C 79.53 129.49 76.98 135.60 72.00 137.00
C 66.14 132.11 53.83 111.95 45.25 120.25 C 36.67 128.55 28.67 134.85 21.26 144.26 C 13.84 153.66 37.21 163.87 39.00 172.00
C 23.54 180.12 36.26 191.59 44.75 199.25 C 53.24 206.91 60.95 215.83 69.25 223.75 C 77.55 231.67 85.56 240.23 93.75 248.25 C 101.94 256.27 109.60 264.18 117.75 272.25 C 125.90 280.32 134.09 288.63 142.25 296.75 C 150.40 304.87 158.60 313.12 166.75 321.25 C 174.90 329.38 183.12 337.63 191.25 345.75 C 199.38 353.87 207.11 361.62 215.25 369.75 C 223.38 377.88 231.57 386.08 239.75 394.25 C 247.93 402.42 256.01 410.54 264.25 418.75 C 272.48 426.96 279.86 434.41 288.25 442.75 C 296.64 451.10 304.02 458.62 312.75 467.25 C 321.49 475.88 327.79 482.52 337.25 491.75 C 346.71 500.98 355.98 485.83 364.25 478.25 C 372.52 470.67 378.83 462.18 388.25 454.25 C 397.67 446.31 406.76 436.96 396.93 426.07 C 387.10 415.18 410.01 395.41 419.92 406.08 C 429.83 416.76 439.90 402.64 447.75 394.75 C 455.60 386.87 463.40 378.33 471.75 370.75 C 480.10 363.18 492.90 352.55 482.25 343.75 C 471.60 334.95 467.03 327.67 457.75 319.25 C 448.48 310.83 442.38 303.50 433.75 295.25 C 425.13 286.99 417.61 278.95 409.25 270.75 C 400.88 262.55 392.99 254.42 384.75 246.25 C 376.51 238.08 368.41 229.89 360.25 221.75 C 352.09 213.62 344.38 205.88 336.25 197.75 C 328.11 189.62 319.89 181.41 311.75 173.25 C 303.61 165.09 295.38 156.94 287.25 148.75 C 279.12 140.56 270.84 132.48 262.75 124.25 C 254.66 116.02 246.80 108.62 238.75 100.25 C 230.70 91.87 222.24 84.45 214.25 75.75 C 206.25 67.06 197.58 60.62 189.75 51.25 C 181.93 41.88 171.17 34.00 162.00 47.00
M 118.00 91.00 
C 116.81 91.33 107.00 83.67 107.00 81.00
C 107.00 76.84 115.59 73.55 117.75 69.75 C 119.91 65.95 125.84 62.59 128.75 58.75 C 131.66 54.92 137.42 51.18 140.00 47.00
C 144.14 49.70 146.91 54.35 151.00 57.00
C 141.89 69.24 129.07 80.13 118.00 91.00
M 175.00 58.00 
C 272.17 156.00 370.05 253.88 468.00 351.00
C 462.21 358.35 454.38 367.65 446.75 373.75 C 439.12 379.85 432.94 394.17 422.92 390.08 C 412.91 385.99 397.54 388.98 389.92 396.92 C 382.29 404.86 376.35 418.94 381.33 429.67 C 386.31 440.41 373.46 445.67 366.75 453.75 C 360.04 461.83 351.30 467.75 345.00 476.00
C 245.58 380.41 148.88 279.72 50.00 183.00
C 91.17 141.00 133.05 99.12 175.00 58.00
M 96.00 92.00 
C 98.87 95.64 102.36 99.23 106.00 102.00
C 104.60 106.98 98.49 109.53 96.00 114.00
C 91.02 112.60 88.47 106.49 84.00 104.00
C 87.52 99.68 91.70 95.44 96.00 92.00
M 51.00 138.00 
C 53.87 141.64 57.36 145.23 61.00 148.00
C 58.30 152.14 53.65 154.91 51.00 159.00
C 46.02 157.60 43.47 151.49 39.00 149.00
C 42.58 145.16 46.15 139.85 51.00 138.00 Z"/>
</g>
<g fill="#E1C542" fill-opacity="1.00" stroke="None">
<path d="
M 107.00 81.00 
C 111.14 81.72 113.91 91.00 118.00 91.00
C 129.07 80.13 141.89 69.24 151.00 57.00
C 146.91 54.35 144.14 49.70 140.00 47.00
C 137.42 51.18 131.66 54.92 128.75 58.75 C 125.84 62.59 119.91 65.95 117.75 69.75 C 115.59 73.55 107.00 76.84 107.00 81.00 Z"/>
</g>
<g fill="#008B53" fill-opacity="1.00" stroke="None">
<path d="
M 175.00 58.00 
C 133.05 99.12 91.17 141.00 50.00 183.00
C 148.88 279.72 245.58 380.41 345.00 476.00
C 351.30 467.75 360.04 461.83 366.75 453.75 C 373.46 445.67 386.31 440.41 381.33 429.67 C 376.35 418.94 382.29 404.86 389.92 396.92 C 397.54 388.98 412.91 385.99 422.92 390.08 C 432.94 394.17 439.12 379.85 446.75 373.75 C 454.38 367.65 462.21 358.35 468.00 351.00
C 370.05 253.88 272.17 156.00 175.00 58.00
M 180.00 109.00 
C 189.20 94.10 199.64 105.78 207.75 114.25 C 215.87 122.72 230.05 133.15 214.00 142.00
C 217.83 148.97 233.47 155.63 225.75 164.75 C 218.02 173.86 208.18 159.66 203.00 154.00
C 197.06 157.62 188.71 166.26 196.25 170.75 C 203.79 175.25 208.70 185.05 200.30 189.30 C 191.91 193.55 186.20 181.26 181.00 177.00
C 176.02 178.40 173.47 184.51 169.00 187.00
C 170.57 194.78 183.71 196.70 182.00 206.00 C 180.28 215.31 168.23 214.36 163.75 205.25 C 159.27 196.14 150.63 204.55 146.00 210.00
C 149.88 216.85 165.58 223.79 157.75 232.75 C 149.91 241.70 140.23 227.59 135.00 222.00
C 125.80 236.90 115.36 225.22 107.25 216.75 C 99.13 208.28 84.95 197.85 101.00 189.00
C 97.17 182.03 81.53 175.37 89.25 166.25 C 96.98 157.14 106.82 171.34 112.00 177.00
C 117.85 173.28 127.14 164.27 118.25 159.75 C 109.36 155.23 107.23 143.57 116.03 141.03 C 124.82 138.49 127.97 149.81 134.00 154.00
C 138.98 152.60 141.53 146.49 146.00 144.00
C 144.58 136.10 131.18 134.22 132.35 125.31 C 133.53 116.39 146.26 115.51 150.75 125.25 C 155.24 134.99 164.28 126.81 169.00 121.00
C 165.24 114.35 149.15 106.89 156.92 97.92 C 164.70 88.96 174.98 103.61 180.00 109.00
M 253.00 160.00 
C 259.56 161.76 260.36 169.53 266.75 173.25 C 273.14 176.96 265.69 190.73 258.78 186.22 C 251.87 181.71 250.72 178.63 244.75 173.25 C 238.78 167.87 245.02 157.86 253.00 160.00
M 219.00 307.00 
C 213.78 311.98 207.07 324.26 198.75 317.25 C 190.44 310.23 202.74 301.59 208.00 297.00
C 206.60 292.02 200.49 289.47 198.00 285.00
C 191.40 287.53 185.15 301.34 176.77 294.23 C 168.39 287.12 179.66 278.41 185.00 274.00
C 183.60 269.02 177.49 266.47 175.00 262.00
C 169.20 265.82 162.80 277.69 154.78 271.22 C 146.76 264.75 157.40 254.96 163.00 251.00
C 156.86 238.68 172.88 231.00 180.25 222.25 C 187.61 213.50 198.11 205.44 205.75 196.75 C 213.40 188.06 224.11 174.75 233.75 185.25 C 243.40 195.74 249.41 201.16 259.25 210.75 C 269.09 220.34 273.22 226.31 284.25 235.75 C 295.27 245.20 282.28 256.67 273.25 264.25 C 264.21 271.83 257.26 281.97 248.25 289.25 C 239.24 296.52 231.55 313.46 219.00 307.00
M 295.00 201.00 
C 300.82 203.15 302.31 211.22 308.25 214.75 C 314.19 218.29 305.05 232.00 298.98 227.02 C 292.90 222.04 290.91 219.42 285.25 213.75 C 279.59 208.08 286.52 197.87 295.00 201.00
M 331.00 237.00 
C 337.49 239.28 341.49 250.26 347.75 254.25 C 354.01 258.24 358.73 266.36 364.75 271.25 C 370.77 276.14 375.74 282.97 381.75 288.25 C 387.76 293.52 393.08 300.42 399.25 305.75 C 405.41 311.08 409.64 317.66 416.25 322.75 C 422.86 327.85 428.97 336.40 421.75 342.75 C 414.53 349.10 411.15 353.67 404.75 359.75 C 398.36 365.83 393.30 371.21 387.25 377.25 C 381.20 383.29 376.13 388.06 370.25 394.25 C 364.37 400.43 359.11 404.57 353.25 411.25 C 347.39 417.93 342.21 420.40 336.25 428.25 C 330.29 436.10 321.02 432.66 315.75 425.25 C 310.48 417.84 304.23 414.76 298.75 408.25 C 293.27 401.74 287.32 397.41 281.75 391.25 C 276.18 385.08 270.34 380.40 264.75 374.25 C 259.16 368.09 252.76 363.15 247.25 356.75 C 241.74 350.35 235.51 346.86 230.25 339.75 C 224.99 332.64 236.08 324.35 241.25 319.25 C 246.42 314.14 252.75 307.65 258.25 302.25 C 263.75 296.84 270.11 290.21 275.75 284.75 C 281.40 279.30 287.02 273.05 292.75 267.75 C 298.48 262.45 303.89 255.65 309.75 250.75 C 315.62 245.86 321.99 233.83 331.00 237.00 Z"/>
</g>
<g fill="#008B53" fill-opacity="1.00" stroke="None">
<path d="
M 118.00 91.00 
C 113.91 91.00 111.14 81.72 107.00 81.00
C 107.00 83.67 116.81 91.33 118.00 91.00 Z"/>
</g>
<g fill="#E1C542" fill-opacity="1.00" stroke="None">
<path d="
M 96.00 92.00 
C 91.70 95.44 87.52 99.68 84.00 104.00
C 88.47 106.49 91.02 112.60 96.00 114.00
C 98.49 109.53 104.60 106.98 106.00 102.00
C 102.36 99.23 98.87 95.64 96.00 92.00 Z"/>
</g>
<g fill="#000000" fill-opacity="1.00" stroke="None">
<path d="
M 180.00 109.00 
C 174.98 103.61 164.70 88.96 156.92 97.92 C 149.15 106.89 165.24 114.35 169.00 121.00
C 164.28 126.81 155.24 134.99 150.75 125.25 C 146.26 115.51 133.53 116.39 132.35 125.31 C 131.18 134.22 144.58 136.10 146.00 144.00
C 141.53 146.49 138.98 152.60 134.00 154.00
C 127.97 149.81 124.82 138.49 116.03 141.03 C 107.23 143.57 109.36 155.23 118.25 159.75 C 127.14 164.27 117.85 173.28 112.00 177.00
C 106.82 171.34 96.98 157.14 89.25 166.25 C 81.53 175.37 97.17 182.03 101.00 189.00
C 84.95 197.85 99.13 208.28 107.25 216.75 C 115.36 225.22 125.80 236.90 135.00 222.00
C 140.23 227.59 149.91 241.70 157.75 232.75 C 165.58 223.79 149.88 216.85 146.00 210.00
C 150.63 204.55 159.27 196.14 163.75 205.25 C 168.23 214.36 180.28 215.31 182.00 206.00 C 183.71 196.70 170.57 194.78 169.00 187.00
C 173.47 184.51 176.02 178.40 181.00 177.00
C 186.20 181.26 191.91 193.55 200.30 189.30 C 208.70 185.05 203.79 175.25 196.25 170.75 C 188.71 166.26 197.06 157.62 203.00 154.00
C 208.18 159.66 218.02 173.86 225.75 164.75 C 233.47 155.63 217.83 148.97 214.00 142.00
C 230.05 133.15 215.87 122.72 207.75 114.25 C 199.64 105.78 189.20 94.10 180.00 109.00
M 192.00 120.00 
C 195.19 123.98 199.03 127.89 203.00 131.00
C 190.00 144.44 176.83 158.31 163.25 171.25 C 149.67 184.18 136.99 200.04 122.00 210.00
C 113.90 204.15 112.21 197.36 120.25 191.25 C 128.29 185.14 131.33 179.26 138.25 173.25 C 145.17 167.24 149.34 161.70 155.75 155.75 C 162.16 149.80 167.49 143.67 173.75 137.75 C 180.01 131.84 185.45 125.37 192.00 120.00 Z"/>
</g>
<g fill="#CACFCE" fill-opacity="1.00" stroke="None">
<path d="
M 192.00 120.00 
C 185.45 125.37 180.01 131.84 173.75 137.75 C 167.49 143.67 162.16 149.80 155.75 155.75 C 149.34 161.70 145.17 167.24 138.25 173.25 C 131.33 179.26 128.29 185.14 120.25 191.25 C 112.21 197.36 113.90 204.15 122.00 210.00
C 136.99 200.04 149.67 184.18 163.25 171.25 C 176.83 158.31 190.00 144.44 203.00 131.00
C 199.03 127.89 195.19 123.98 192.00 120.00 Z"/>
</g>
<g fill="#E1C542" fill-opacity="1.00" stroke="None">
<path d="
M 51.00 138.00 
C 46.15 139.85 42.58 145.16 39.00 149.00
C 43.47 151.49 46.02 157.60 51.00 159.00
C 53.65 154.91 58.30 152.14 61.00 148.00
C 57.36 145.23 53.87 141.64 51.00 138.00 Z"/>
</g>
<g fill="#000000" fill-opacity="1.00" stroke="None">
<path d="
M 253.00 160.00 
C 245.02 157.86 238.78 167.87 244.75 173.25 C 250.72 178.63 251.87 181.71 258.78 186.22 C 265.69 190.73 273.14 176.96 266.75 173.25 C 260.36 169.53 259.56 161.76 253.00 160.00 Z"/>
</g>
<g fill="#000000" fill-opacity="1.00" stroke="None">
<path d="
M 219.00 307.00 
C 231.55 313.46 239.24 296.52 248.25 289.25 C 257.26 281.97 264.21 271.83 273.25 264.25 C 282.28 256.67 295.27 245.20 284.25 235.75 C 273.22 226.31 269.09 220.34 259.25 210.75 C 249.41 201.16 243.40 195.74 233.75 185.25 C 224.11 174.75 213.40 188.06 205.75 196.75 C 198.11 205.44 187.61 213.50 180.25 222.25 C 172.88 231.00 156.86 238.68 163.00 251.00
C 157.40 254.96 146.76 264.75 154.78 271.22 C 162.80 277.69 169.20 265.82 175.00 262.00
C 177.49 266.47 183.60 269.02 185.00 274.00
C 179.66 278.41 168.39 287.12 176.77 294.23 C 185.15 301.34 191.40 287.53 198.00 285.00
C 200.49 289.47 206.60 292.02 208.00 297.00
C 202.74 301.59 190.44 310.23 198.75 317.25 C 207.07 324.26 213.78 311.98 219.00 307.00
M 266.00 240.00 
C 267.18 241.38 268.15 243.39 270.00 244.00
C 257.40 260.41 239.73 274.12 226.00 290.00
C 210.17 275.66 195.79 259.29 180.00 245.00
C 194.93 229.89 209.77 213.08 226.00 200.00
C 231.07 200.42 234.72 209.87 239.25 212.75 C 243.78 215.64 248.35 222.49 252.75 226.25 C 257.15 230.00 262.25 235.61 266.00 240.00 Z"/>
</g>
<g fill="#CACFCE" fill-opacity="1.00" stroke="None">
<path d="
M 266.00 240.00 
C 252.75 226.75 238.47 213.93 226.00 200.00
C 209.77 213.08 194.93 229.89 180.00 245.00
C 195.79 259.29 210.17 275.66 226.00 290.00
C 239.73 274.12 257.40 260.41 270.00 244.00
C 268.15 243.39 267.18 241.38 266.00 240.00 Z"/>
</g>
<g fill="#008B53" fill-opacity="1.00" stroke="None">
<path d="
M 266.00 240.00 
C 262.25 235.61 257.15 230.00 252.75 226.25 C 248.35 222.49 243.78 215.64 239.25 212.75 C 234.72 209.87 231.07 200.42 226.00 200.00
C 238.47 213.93 252.75 226.75 266.00 240.00 Z"/>
</g>
<g fill="#000000" fill-opacity="1.00" stroke="None">
<path d="
M 295.00 201.00 
C 286.52 197.87 279.59 208.08 285.25 213.75 C 290.91 219.42 292.90 222.04 298.98 227.02 C 305.05 232.00 314.19 218.29 308.25 214.75 C 302.31 211.22 300.82 203.15 295.00 201.00 Z"/>
</g>
<g fill="#000000" fill-opacity="1.00" stroke="None">
<path d="
M 331.00 237.00 
C 321.99 233.83 315.62 245.86 309.75 250.75 C 303.89 255.65 298.48 262.45 292.75 267.75 C 287.02 273.05 281.40 279.30 275.75 284.75 C 270.11 290.21 263.75 296.84 258.25 302.25 C 252.75 307.65 246.42 314.14 241.25 319.25 C 236.08 324.35 224.99 332.64 230.25 339.75 C 235.51 346.86 241.74 350.35 247.25 356.75 C 252.76 363.15 259.16 368.09 264.75 374.25 C 270.34 380.40 276.18 385.08 281.75 391.25 C 287.32 397.41 293.27 401.74 298.75 408.25 C 304.23 414.76 310.48 417.84 315.75 425.25 C 321.02 432.66 330.29 436.10 336.25 428.25 C 342.21 420.40 347.39 417.93 353.25 411.25 C 359.11 404.57 364.37 400.43 370.25 394.25 C 376.13 388.06 381.20 383.29 387.25 377.25 C 393.30 371.21 398.36 365.83 404.75 359.75 C 411.15 353.67 414.53 349.10 421.75 342.75 C 428.97 336.40 422.86 327.85 416.25 322.75 C 409.64 317.66 405.41 311.08 399.25 305.75 C 393.08 300.42 387.76 293.52 381.75 288.25 C 375.74 282.97 370.77 276.14 364.75 271.25 C 358.73 266.36 354.01 258.24 347.75 254.25 C 341.49 250.26 337.49 239.28 331.00 237.00
M 328.00 256.00 
C 353.50 282.33 379.71 308.55 406.00 334.00
C 382.08 361.75 353.05 386.78 328.00 414.00
C 300.25 390.08 275.22 361.05 248.00 336.00
C 274.17 309.00 301.05 282.12 328.00 256.00 Z"/>
</g>
<g fill="#CACFCE" fill-opacity="1.00" stroke="None">
<path d="
M 328.00 256.00 
C 301.05 282.12 274.17 309.00 248.00 336.00
C 275.22 361.05 300.25 390.08 328.00 414.00
C 353.05 386.78 382.08 361.75 406.00 334.00
C 379.71 308.55 353.50 282.33 328.00 256.00
M 339.00 305.00 
C 334.68 302.36 331.36 297.56 328.00 294.00
C 320.07 293.34 317.61 311.08 307.78 306.22 C 297.95 301.36 304.68 291.33 310.75 286.75 C 316.83 282.17 322.90 270.21 331.07 274.93 C 339.25 279.64 340.56 285.85 348.25 291.75 C 355.94 297.65 349.53 311.45 339.00 305.00
M 315.00 365.00 
C 319.90 367.26 323.12 373.64 327.00 377.00
C 334.01 377.00 332.87 365.84 340.25 364.25 C 347.63 362.65 355.26 368.41 350.00 377.00
C 346.54 382.65 338.52 390.47 333.00 394.00
C 321.10 401.60 319.14 386.96 309.75 382.25 C 300.37 377.54 300.63 358.35 315.00 365.00 Z"/>
</g>
<g fill="#000000" fill-opacity="1.00" stroke="None">
<path d="
M 328.00 294.00 
C 331.93 294.33 336.12 302.92 339.00 305.00
C 349.53 311.45 355.94 297.65 348.25 291.75 C 340.56 285.85 339.25 279.64 331.07 274.93 C 322.90 270.21 316.83 282.17 310.75 286.75 C 304.68 291.33 297.95 301.36 307.78 306.22 C 317.61 311.08 320.07 293.34 328.00 294.00 Z"/>
</g>
<g fill="#008B53" fill-opacity="1.00" stroke="None">
<path d="
M 339.00 305.00 
C 336.12 302.92 331.93 294.33 328.00 294.00
C 331.36 297.56 334.68 302.36 339.00 305.00 Z"/>
</g>
<g fill="#000000" fill-opacity="1.00" stroke="None">
<path d="
M 333.00 394.00 
C 338.08 390.19 346.33 382.08 350.00 377.00
C 355.26 368.41 347.63 362.65 340.25 364.25 C 332.87 365.84 334.01 377.00 327.00 377.00
C 322.82 377.00 318.26 366.80 315.00 365.00
C 300.63 358.35 300.37 377.54 309.75 382.25 C 319.14 386.96 321.10 401.60 333.00 394.00 Z"/>
</g>
<g fill="#008B53" fill-opacity="1.00" stroke="None">
<path d="
M 327.00 377.00 
C 323.12 373.64 319.90 367.26 315.00 365.00
C 318.26 366.80 322.82 377.00 327.00 377.00 Z"/>
</g>
<g fill="#008B53" fill-opacity="1.00" stroke="None">
<path d="
M 333.00 394.00 
C 338.52 390.47 346.54 382.65 350.00 377.00
C 346.33 382.08 338.08 390.19 333.00 394.00 Z"/>
</g>
</svg>